{
	"asset":{
		"generator":"Khronos glTF Blender I/O v4.0.44",
		"version":"2.0"
	},
	"scene":0,
	"scenes":[
		{
			"name":"Scene",
			"nodes":[
				0,
				1,
				2,
				3
			]
		}
	],
	"nodes":[
		{
			"mesh":0,
			"name":"I"
		},
		{
			"mesh":1,
			"name":"L"
		},
		{
			"mesh":2,
			"name":"DoubleTrim_I"
		},
		{
			"mesh":3,
			"name":"DoubleTrim_L"
		}
	],
	"meshes":[
		{
			"name":"Cube",
			"primitives":[
				{
					"attributes":{
						"POSITION":0,
						"NORMAL":1,
						"TEXCOORD_0":2,
						"TANGENT":3
					},
					"indices":4
				}
			]
		},
		{
			"name":"Cube.001",
			"primitives":[
				{
					"attributes":{
						"POSITION":5,
						"NORMAL":6,
						"TEXCOORD_0":7,
						"TANGENT":8
					},
					"indices":9
				}
			]
		},
		{
			"name":"Cube.007",
			"primitives":[
				{
					"attributes":{
						"POSITION":10,
						"NORMAL":11,
						"TEXCOORD_0":12,
						"TANGENT":13
					},
					"indices":14
				}
			]
		},
		{
			"name":"Cube.008",
			"primitives":[
				{
					"attributes":{
						"POSITION":15,
						"NORMAL":16,
						"TEXCOORD_0":17,
						"TANGENT":18
					},
					"indices":19
				}
			]
		}
	],
	"accessors":[
		{
			"bufferView":0,
			"componentType":5126,
			"count":24,
			"max":[
				1,
				1,
				1.000999927520752
			],
			"min":[
				-1,
				-1,
				0.9990000128746033
			],
			"type":"VEC3"
		},
		{
			"bufferView":1,
			"componentType":5126,
			"count":24,
			"type":"VEC3"
		},
		{
			"bufferView":2,
			"componentType":5126,
			"count":24,
			"type":"VEC2"
		},
		{
			"bufferView":3,
			"componentType":5126,
			"count":24,
			"type":"VEC4"
		},
		{
			"bufferView":4,
			"componentType":5123,
			"count":36,
			"type":"SCALAR"
		},
		{
			"bufferView":5,
			"componentType":5126,
			"count":40,
			"max":[
				1.0010000467300415,
				1,
				1.0010000467300415
			],
			"min":[
				-1,
				-1,
				-1
			],
			"type":"VEC3"
		},
		{
			"bufferView":6,
			"componentType":5126,
			"count":40,
			"type":"VEC3"
		},
		{
			"bufferView":7,
			"componentType":5126,
			"count":40,
			"type":"VEC2"
		},
		{
			"bufferView":8,
			"componentType":5126,
			"count":40,
			"type":"VEC4"
		},
		{
			"bufferView":9,
			"componentType":5123,
			"count":60,
			"type":"SCALAR"
		},
		{
			"bufferView":10,
			"componentType":5126,
			"count":48,
			"max":[
				1,
				1.100000023841858,
				1.100000023841858
			],
			"min":[
				-1,
				-1.100000023841858,
				0.8999999761581421
			],
			"type":"VEC3"
		},
		{
			"bufferView":11,
			"componentType":5126,
			"count":48,
			"type":"VEC3"
		},
		{
			"bufferView":12,
			"componentType":5126,
			"count":48,
			"type":"VEC2"
		},
		{
			"bufferView":13,
			"componentType":5126,
			"count":48,
			"type":"VEC4"
		},
		{
			"bufferView":14,
			"componentType":5123,
			"count":72,
			"type":"SCALAR"
		},
		{
			"bufferView":15,
			"componentType":5126,
			"count":80,
			"max":[
				1.100000023841858,
				1.100000023841858,
				1.100000023841858
			],
			"min":[
				-1,
				-1.100000023841858,
				-1
			],
			"type":"VEC3"
		},
		{
			"bufferView":16,
			"componentType":5126,
			"count":80,
			"type":"VEC3"
		},
		{
			"bufferView":17,
			"componentType":5126,
			"count":80,
			"type":"VEC2"
		},
		{
			"bufferView":18,
			"componentType":5126,
			"count":80,
			"type":"VEC4"
		},
		{
			"bufferView":19,
			"componentType":5123,
			"count":120,
			"type":"SCALAR"
		}
	],
	"bufferViews":[
		{
			"buffer":0,
			"byteLength":288,
			"byteOffset":0,
			"target":34962
		},
		{
			"buffer":0,
			"byteLength":288,
			"byteOffset":288,
			"target":34962
		},
		{
			"buffer":0,
			"byteLength":192,
			"byteOffset":576,
			"target":34962
		},
		{
			"buffer":0,
			"byteLength":384,
			"byteOffset":768,
			"target":34962
		},
		{
			"buffer":0,
			"byteLength":72,
			"byteOffset":1152,
			"target":34963
		},
		{
			"buffer":0,
			"byteLength":480,
			"byteOffset":1224,
			"target":34962
		},
		{
			"buffer":0,
			"byteLength":480,
			"byteOffset":1704,
			"target":34962
		},
		{
			"buffer":0,
			"byteLength":320,
			"byteOffset":2184,
			"target":34962
		},
		{
			"buffer":0,
			"byteLength":640,
			"byteOffset":2504,
			"target":34962
		},
		{
			"buffer":0,
			"byteLength":120,
			"byteOffset":3144,
			"target":34963
		},
		{
			"buffer":0,
			"byteLength":576,
			"byteOffset":3264,
			"target":34962
		},
		{
			"buffer":0,
			"byteLength":576,
			"byteOffset":3840,
			"target":34962
		},
		{
			"buffer":0,
			"byteLength":384,
			"byteOffset":4416,
			"target":34962
		},
		{
			"buffer":0,
			"byteLength":768,
			"byteOffset":4800,
			"target":34962
		},
		{
			"buffer":0,
			"byteLength":144,
			"byteOffset":5568,
			"target":34963
		},
		{
			"buffer":0,
			"byteLength":960,
			"byteOffset":5712,
			"target":34962
		},
		{
			"buffer":0,
			"byteLength":960,
			"byteOffset":6672,
			"target":34962
		},
		{
			"buffer":0,
			"byteLength":640,
			"byteOffset":7632,
			"target":34962
		},
		{
			"buffer":0,
			"byteLength":1280,
			"byteOffset":8272,
			"target":34962
		},
		{
			"buffer":0,
			"byteLength":240,
			"byteOffset":9552,
			"target":34963
		}
	],
	"buffers":[
		{
			"byteLength":9792,
			"uri":"Tiles_Edge-a49474abadb90c78472df7a6cbaed4ac.bin"
		}
	]
}
